<svg xmlns="http://www.w3.org/2000/svg" width="1440" height="980" viewBox="0 0 1440 980"><defs><linearGradient id="bg" x1="0" y1="0" x2="1" y2="1"><stop offset="0%" stop-color="#0f172a"/><stop offset="100%" stop-color="#111827"/></linearGradient></defs><rect width="100%" height="100%" fill="url(#bg)"/><text x="48" y="64" fill="#f8fafc" font-size="34" font-family="Inter,Segoe UI,Arial,sans-serif" font-weight="700">Voyager LAN Run Demo</text><text x="48" y="98" fill="#94a3b8" font-size="17" font-family="Inter,Segoe UI,Arial,sans-serif" font-weight="400">Generated from the real ckpt_voyager checkpoint</text><rect x="48" y="130" width="250" height="104" rx="20" fill="#111827" stroke="#1f2937" stroke-width="1"/><rect x="66" y="148" width="8" height="68" rx="4" fill="#22c55e"/><text x="90" y="168" fill="#94a3b8" font-size="16" font-family="Inter,Segoe UI,Arial,sans-serif" font-weight="500">Completed</text><text x="90" y="205" fill="#f8fafc" font-size="28" font-family="Inter,Segoe UI,Arial,sans-serif" font-weight="700">27</text><rect x="318" y="130" width="250" height="104" rx="20" fill="#111827" stroke="#1f2937" stroke-width="1"/><rect x="336" y="148" width="8" height="68" rx="4" fill="#ef4444"/><text x="360" y="168" fill="#94a3b8" font-size="16" font-family="Inter,Segoe UI,Arial,sans-serif" font-weight="500">Failed</text><text x="360" y="205" fill="#f8fafc" font-size="28" font-family="Inter,Segoe UI,Arial,sans-serif" font-weight="700">3</text><rect x="588" y="130" width="250" height="104" rx="20" fill="#111827" stroke="#1f2937" stroke-width="1"/><rect x="606" y="148" width="8" height="68" rx="4" fill="#a78bfa"/><text x="630" y="168" fill="#94a3b8" font-size="16" font-family="Inter,Segoe UI,Arial,sans-serif" font-weight="500">Skills</text><text x="630" y="205" fill="#f8fafc" font-size="28" font-family="Inter,Segoe UI,Arial,sans-serif" font-weight="700">28</text><rect x="858" y="130" width="250" height="104" rx="20" fill="#111827" stroke="#1f2937" stroke-width="1"/><rect x="876" y="148" width="8" height="68" rx="4" fill="#38bdf8"/><text x="900" y="168" fill="#94a3b8" font-size="16" font-family="Inter,Segoe UI,Arial,sans-serif" font-weight="500">Episodes</text><text x="900" y="205" fill="#f8fafc" font-size="28" font-family="Inter,Segoe UI,Arial,sans-serif" font-weight="700">39</text><rect x="1128" y="130" width="250" height="104" rx="20" fill="#111827" stroke="#1f2937" stroke-width="1"/><rect x="1146" y="148" width="8" height="68" rx="4" fill="#f59e0b"/><text x="1170" y="168" fill="#94a3b8" font-size="16" font-family="Inter,Segoe UI,Arial,sans-serif" font-weight="500">Recorded Time</text><text x="1170" y="205" fill="#f8fafc" font-size="28" font-family="Inter,Segoe UI,Arial,sans-serif" font-weight="700">14574t / 12m 09s</text><rect x="48" y="270" width="760" height="420" rx="24" fill="#0b1220" stroke="#1f2937" stroke-width="1"/><text x="72" y="308" fill="#f8fafc" font-size="22" font-family="Inter,Segoe UI,Arial,sans-serif" font-weight="650">Curriculum Route</text><text x="72" y="332" fill="#94a3b8" font-size="14" font-family="Inter,Segoe UI,Arial,sans-serif" font-weight="400">Selected task snapshots across the real world run</text><line x1="84.0" y1="358" x2="84.0" y2="648" stroke="#1f2937" stroke-width="1"/><line x1="84" y1="358.0" x2="772" y2="358.0" stroke="#1f2937" stroke-width="1"/><line x1="256.0" y1="358" x2="256.0" y2="648" stroke="#1f2937" stroke-width="1"/><line x1="84" y1="430.5" x2="772" y2="430.5" stroke="#1f2937" stroke-width="1"/><line x1="428.0" y1="358" x2="428.0" y2="648" stroke="#1f2937" stroke-width="1"/><line x1="84" y1="503.0" x2="772" y2="503.0" stroke="#1f2937" stroke-width="1"/><line x1="600.0" y1="358" x2="600.0" y2="648" stroke="#1f2937" stroke-width="1"/><line x1="84" y1="575.5" x2="772" y2="575.5" stroke="#1f2937" stroke-width="1"/><line x1="772.0" y1="358" x2="772.0" y2="648" stroke="#1f2937" stroke-width="1"/><line x1="84" y1="648.0" x2="772" y2="648.0" stroke="#1f2937" stroke-width="1"/><polyline points="84.0,440.5 84.0,440.5 772.0,358.0 772.0,358.0 772.0,358.0 772.0,358.0 354.9,493.8 353.3,496.5 353.3,496.5 353.3,496.5 344.3,499.0 346.5,498.5 346.5,498.5 346.5,498.5 348.1,497.5 350.1,498.0 341.1,498.5 341.1,498.5 341.1,498.5 341.1,498.1 341.1,498.1 341.1,498.1 345.0,497.9 346.4,498.0 346.4,498.0 346.4,498.0 346.4,498.0 263.2,648.0" fill="none" stroke="#60a5fa" stroke-width="4" stroke-linejoin="round" stroke-linecap="round" opacity="0.8"/><circle cx="84.0" cy="440.5" r="7" fill="#22c55e" stroke="#60a5fa" stroke-width="3"/><circle cx="84.0" cy="440.5" r="7" fill="#22c55e" stroke="#60a5fa" stroke-width="3"/><circle cx="772.0" cy="358.0" r="7" fill="#22c55e" stroke="#f59e0b" stroke-width="3"/><circle cx="772.0" cy="358.0" r="7" fill="#22c55e" stroke="#f59e0b" stroke-width="3"/><circle cx="772.0" cy="358.0" r="7" fill="#22c55e" stroke="#f59e0b" stroke-width="3"/><circle cx="772.0" cy="358.0" r="7" fill="#22c55e" stroke="#f59e0b" stroke-width="3"/><circle cx="354.9" cy="493.8" r="7" fill="#22c55e" stroke="#60a5fa" stroke-width="3"/><circle cx="353.3" cy="496.5" r="7" fill="#22c55e" stroke="#60a5fa" stroke-width="3"/><circle cx="353.3" cy="496.5" r="7" fill="#22c55e" stroke="#f59e0b" stroke-width="3"/><circle cx="353.3" cy="496.5" r="7" fill="#22c55e" stroke="#f59e0b" stroke-width="3"/><circle cx="344.3" cy="499.0" r="7" fill="#22c55e" stroke="#60a5fa" stroke-width="3"/><circle cx="346.5" cy="498.5" r="7" fill="#22c55e" stroke="#60a5fa" stroke-width="3"/><circle cx="346.5" cy="498.5" r="7" fill="#22c55e" stroke="#f59e0b" stroke-width="3"/><circle cx="346.5" cy="498.5" r="7" fill="#22c55e" stroke="#f97316" stroke-width="3"/><circle cx="348.1" cy="497.5" r="7" fill="#22c55e" stroke="#60a5fa" stroke-width="3"/><circle cx="350.1" cy="498.0" r="7" fill="#22c55e" stroke="#60a5fa" stroke-width="3"/><circle cx="341.1" cy="498.5" r="7" fill="#22c55e" stroke="#60a5fa" stroke-width="3"/><circle cx="341.1" cy="498.5" r="7" fill="#22c55e" stroke="#f59e0b" stroke-width="3"/><circle cx="341.1" cy="498.5" r="7" fill="#22c55e" stroke="#10b981" stroke-width="3"/><circle cx="341.1" cy="498.1" r="7" fill="#22c55e" stroke="#60a5fa" stroke-width="3"/><circle cx="341.1" cy="498.1" r="7" fill="#22c55e" stroke="#f97316" stroke-width="3"/><circle cx="341.1" cy="498.1" r="7" fill="#22c55e" stroke="#f59e0b" stroke-width="3"/><circle cx="345.0" cy="497.9" r="7" fill="#22c55e" stroke="#60a5fa" stroke-width="3"/><circle cx="346.4" cy="498.0" r="7" fill="#22c55e" stroke="#60a5fa" stroke-width="3"/><circle cx="346.4" cy="498.0" r="7" fill="#22c55e" stroke="#f97316" stroke-width="3"/><circle cx="346.4" cy="498.0" r="7" fill="#22c55e" stroke="#f59e0b" stroke-width="3"/><circle cx="346.4" cy="498.0" r="7" fill="#22c55e" stroke="#10b981" stroke-width="3"/><circle cx="263.2" cy="648.0" r="7" fill="#ef4444" stroke="#ef4444" stroke-width="3"/><circle cx="84.0" cy="440.5" r="10" fill="#22c55e" stroke="#ecfeff" stroke-width="2"/><circle cx="263.2" cy="648.0" r="10" fill="#f59e0b" stroke="#ecfeff" stroke-width="2"/><text x="98.0" y="430.4934980494148" fill="#d1fae5" font-size="14" font-family="Inter,Segoe UI,Arial,sans-serif" font-weight="600">Start</text><text x="277.20652583418894" y="638.0" fill="#fde68a" font-size="14" font-family="Inter,Segoe UI,Arial,sans-serif" font-weight="600">Latest</text><text x="84" y="664" fill="#64748b" font-size="13" font-family="Inter,Segoe UI,Arial,sans-serif" font-weight="400">X range: 196.5 to 592.5</text><text x="334" y="664" fill="#64748b" font-size="13" font-family="Inter,Segoe UI,Arial,sans-serif" font-weight="400">Z range: -582.7 to 32.5</text><rect x="840" y="270" width="552" height="210" rx="24" fill="#0b1220" stroke="#1f2937" stroke-width="1"/><text x="864" y="308" fill="#f8fafc" font-size="22" font-family="Inter,Segoe UI,Arial,sans-serif" font-weight="650">Latest Snapshot</text><text x="864" y="342" fill="#e5e7eb" font-size="16" font-family="Inter,Segoe UI,Arial,sans-serif" font-weight="400">Biome: snowy_taiga</text><text x="864" y="370" fill="#e5e7eb" font-size="16" font-family="Inter,Segoe UI,Arial,sans-serif" font-weight="400">Time: noon</text><text x="864" y="398" fill="#e5e7eb" font-size="16" font-family="Inter,Segoe UI,Arial,sans-serif" font-weight="400">Position: x=299.6, z=-582.7</text><text x="864" y="426" fill="#e5e7eb" font-size="16" font-family="Inter,Segoe UI,Arial,sans-serif" font-weight="400">Health/Food: 20 / 19</text><text x="864" y="454" fill="#e5e7eb" font-size="16" font-family="Inter,Segoe UI,Arial,sans-serif" font-weight="400">Equipment: iron_boots, stone_sword</text><rect x="840" y="500" width="552" height="190" rx="24" fill="#0b1220" stroke="#1f2937" stroke-width="1"/><text x="864" y="538" fill="#f8fafc" font-size="22" font-family="Inter,Segoe UI,Arial,sans-serif" font-weight="650">Biomes Visited</text><rect x="864" y="574" width="116" height="30" rx="15" fill="#67e8f9"/><text x="876" y="595" fill="#0f172a" font-size="13" font-family="Inter,Segoe UI,Arial,sans-serif" font-weight="700">frozen_ocean</text><rect x="990" y="574" width="116" height="30" rx="15" fill="#93c5fd"/><text x="1002" y="595" fill="#0f172a" font-size="13" font-family="Inter,Segoe UI,Arial,sans-serif" font-weight="700">snowy_plains</text><rect x="1116" y="574" width="108" height="30" rx="15" fill="#34d399"/><text x="1128" y="595" fill="#0f172a" font-size="13" font-family="Inter,Segoe UI,Arial,sans-serif" font-weight="700">snowy_taiga</text><rect x="864" y="616" width="148" height="30" rx="15" fill="#fca5a5"/><text x="876" y="637" fill="#0f172a" font-size="13" font-family="Inter,Segoe UI,Arial,sans-serif" font-weight="700">windswept_forest</text><text x="864" y="662" fill="#94a3b8" font-size="14" font-family="Inter,Segoe UI,Arial,sans-serif" font-weight="400">Off-path recorded tasks: Mine_1_magma_block, Mine_3_stone</text><rect x="48" y="720" width="680" height="220" rx="24" fill="#0b1220" stroke="#1f2937" stroke-width="1"/><text x="72" y="758" fill="#f8fafc" font-size="22" font-family="Inter,Segoe UI,Arial,sans-serif" font-weight="650">Inventory Milestones</text><text x="72" y="792" fill="#e5e7eb" font-size="16" font-family="Inter,Segoe UI,Arial,sans-serif" font-weight="400">stick  (763t / 0m 38s)</text><text x="340" y="792" fill="#94a3b8" font-size="15" font-family="Inter,Segoe UI,Arial,sans-serif" font-weight="400">Mine_1_wood_log</text><text x="72" y="820" fill="#e5e7eb" font-size="16" font-family="Inter,Segoe UI,Arial,sans-serif" font-weight="400">spruce_sapling  (1073t / 0m 54s)</text><text x="340" y="820" fill="#94a3b8" font-size="15" font-family="Inter,Segoe UI,Arial,sans-serif" font-weight="400">Mine_1_wood_log</text><text x="72" y="848" fill="#e5e7eb" font-size="16" font-family="Inter,Segoe UI,Arial,sans-serif" font-weight="400">spruce_log  (1522t / 1m 16s)</text><text x="340" y="848" fill="#94a3b8" font-size="15" font-family="Inter,Segoe UI,Arial,sans-serif" font-weight="400">Mine_1_wood_log</text><text x="72" y="876" fill="#e5e7eb" font-size="16" font-family="Inter,Segoe UI,Arial,sans-serif" font-weight="400">spruce_planks  (1924t / 1m 36s)</text><text x="340" y="876" fill="#94a3b8" font-size="15" font-family="Inter,Segoe UI,Arial,sans-serif" font-weight="400">Craft_4_spruce_planks</text><text x="72" y="904" fill="#e5e7eb" font-size="16" font-family="Inter,Segoe UI,Arial,sans-serif" font-weight="400">crafting_table  (2042t / 1m 42s)</text><text x="340" y="904" fill="#94a3b8" font-size="15" font-family="Inter,Segoe UI,Arial,sans-serif" font-weight="400">Craft_1_crafting_table</text><text x="72" y="932" fill="#e5e7eb" font-size="16" font-family="Inter,Segoe UI,Arial,sans-serif" font-weight="400">wooden_pickaxe  (2262t / 1m 53s)</text><text x="340" y="932" fill="#94a3b8" font-size="15" font-family="Inter,Segoe UI,Arial,sans-serif" font-weight="400">Craft_1_wooden_pickaxe</text><text x="72" y="960" fill="#e5e7eb" font-size="16" font-family="Inter,Segoe UI,Arial,sans-serif" font-weight="400">cobblestone  (4834t / 4m 02s)</text><text x="340" y="960" fill="#94a3b8" font-size="15" font-family="Inter,Segoe UI,Arial,sans-serif" font-weight="400">Mine_3_cobblestone</text><text x="72" y="988" fill="#e5e7eb" font-size="16" font-family="Inter,Segoe UI,Arial,sans-serif" font-weight="400">dirt  (4834t / 4m 02s)</text><text x="340" y="988" fill="#94a3b8" font-size="15" font-family="Inter,Segoe UI,Arial,sans-serif" font-weight="400">Mine_3_cobblestone</text><text x="72" y="1016" fill="#e5e7eb" font-size="16" font-family="Inter,Segoe UI,Arial,sans-serif" font-weight="400">coal  (5365t / 4m 28s)</text><text x="340" y="1016" fill="#94a3b8" font-size="15" font-family="Inter,Segoe UI,Arial,sans-serif" font-weight="400">Mine_1_coal_ore</text><text x="72" y="1044" fill="#e5e7eb" font-size="16" font-family="Inter,Segoe UI,Arial,sans-serif" font-weight="400">stone_pickaxe  (5552t / 4m 38s)</text><text x="340" y="1044" fill="#94a3b8" font-size="15" font-family="Inter,Segoe UI,Arial,sans-serif" font-weight="400">Craft_1_stone_pickaxe</text><rect x="760" y="720" width="632" height="220" rx="24" fill="#0b1220" stroke="#1f2937" stroke-width="1"/><text x="784" y="758" fill="#f8fafc" font-size="22" font-family="Inter,Segoe UI,Arial,sans-serif" font-weight="650">Top Inventory In Latest Snapshot</text><text x="784" y="792" fill="#e5e7eb" font-size="15" font-family="Inter,Segoe UI,Arial,sans-serif" font-weight="400">cobblestone</text><rect x="980" y="776" width="240" height="16" rx="8" fill="#334155"/><rect x="980" y="776" width="180" height="16" rx="8" fill="#38bdf8"/><text x="1232" y="790" fill="#e2e8f0" font-size="14" font-family="Inter,Segoe UI,Arial,sans-serif" font-weight="600">66</text><text x="784" y="814" fill="#e5e7eb" font-size="15" font-family="Inter,Segoe UI,Arial,sans-serif" font-weight="400">dirt</text><rect x="980" y="798" width="36" height="16" rx="8" fill="#334155"/><rect x="980" y="798" width="24" height="16" rx="8" fill="#38bdf8"/><text x="1028" y="812" fill="#e2e8f0" font-size="14" font-family="Inter,Segoe UI,Arial,sans-serif" font-weight="600">6</text><text x="784" y="836" fill="#e5e7eb" font-size="15" font-family="Inter,Segoe UI,Arial,sans-serif" font-weight="400">lapis_lazuli</text><rect x="980" y="820" width="36" height="16" rx="8" fill="#334155"/><rect x="980" y="820" width="24" height="16" rx="8" fill="#38bdf8"/><text x="1028" y="834" fill="#e2e8f0" font-size="14" font-family="Inter,Segoe UI,Arial,sans-serif" font-weight="600">6</text><text x="784" y="858" fill="#e5e7eb" font-size="15" font-family="Inter,Segoe UI,Arial,sans-serif" font-weight="400">raw_iron</text><rect x="980" y="842" width="30" height="16" rx="8" fill="#334155"/><rect x="980" y="842" width="20" height="16" rx="8" fill="#38bdf8"/><text x="1022" y="856" fill="#e2e8f0" font-size="14" font-family="Inter,Segoe UI,Arial,sans-serif" font-weight="600">5</text><text x="784" y="880" fill="#e5e7eb" font-size="15" font-family="Inter,Segoe UI,Arial,sans-serif" font-weight="400">copper_ingot</text><rect x="980" y="864" width="24" height="16" rx="8" fill="#334155"/><rect x="980" y="864" width="18" height="16" rx="8" fill="#38bdf8"/><text x="1016" y="878" fill="#e2e8f0" font-size="14" font-family="Inter,Segoe UI,Arial,sans-serif" font-weight="600">4</text><text x="784" y="902" fill="#e5e7eb" font-size="15" font-family="Inter,Segoe UI,Arial,sans-serif" font-weight="400">granite</text><rect x="980" y="886" width="24" height="16" rx="8" fill="#334155"/><rect x="980" y="886" width="18" height="16" rx="8" fill="#38bdf8"/><text x="1016" y="900" fill="#e2e8f0" font-size="14" font-family="Inter,Segoe UI,Arial,sans-serif" font-weight="600">4</text><text x="784" y="924" fill="#e5e7eb" font-size="15" font-family="Inter,Segoe UI,Arial,sans-serif" font-weight="400">andesite</text><rect x="980" y="908" width="24" height="16" rx="8" fill="#334155"/><rect x="980" y="908" width="18" height="16" rx="8" fill="#38bdf8"/><text x="1016" y="922" fill="#e2e8f0" font-size="14" font-family="Inter,Segoe UI,Arial,sans-serif" font-weight="600">3</text><text x="784" y="946" fill="#e5e7eb" font-size="15" font-family="Inter,Segoe UI,Arial,sans-serif" font-weight="400">spruce_planks</text><rect x="980" y="930" width="24" height="16" rx="8" fill="#334155"/><rect x="980" y="930" width="18" height="16" rx="8" fill="#38bdf8"/><text x="1016" y="944" fill="#e2e8f0" font-size="14" font-family="Inter,Segoe UI,Arial,sans-serif" font-weight="600">3</text><text x="784" y="968" fill="#e5e7eb" font-size="15" font-family="Inter,Segoe UI,Arial,sans-serif" font-weight="400">coal</text><rect x="980" y="952" width="24" height="16" rx="8" fill="#334155"/><rect x="980" y="952" width="18" height="16" rx="8" fill="#38bdf8"/><text x="1016" y="966" fill="#e2e8f0" font-size="14" font-family="Inter,Segoe UI,Arial,sans-serif" font-weight="600">2</text><text x="784" y="990" fill="#e5e7eb" font-size="15" font-family="Inter,Segoe UI,Arial,sans-serif" font-weight="400">crafting_table</text><rect x="980" y="974" width="24" height="16" rx="8" fill="#334155"/><rect x="980" y="974" width="18" height="16" rx="8" fill="#38bdf8"/><text x="1016" y="988" fill="#e2e8f0" font-size="14" font-family="Inter,Segoe UI,Arial,sans-serif" font-weight="600">1</text><circle cx="72" cy="632" r="6" fill="#22c55e"/><text x="86" y="637" fill="#cbd5e1" font-size="13" font-family="Inter,Segoe UI,Arial,sans-serif" font-weight="400">Completed</text><circle cx="182" cy="632" r="6" fill="#ef4444"/><text x="196" y="637" fill="#cbd5e1" font-size="13" font-family="Inter,Segoe UI,Arial,sans-serif" font-weight="400">Failed</text><circle cx="292" cy="632" r="6" fill="#94a3b8"/><text x="306" y="637" fill="#cbd5e1" font-size="13" font-family="Inter,Segoe UI,Arial,sans-serif" font-weight="400">Missing</text></svg>